<?xml version="1.0" encoding="utf-8"?>
<!-- Generator: Adobe Illustrator 24.3.0, SVG Export Plug-In . SVG Version: 6.00 Build 0)  -->
<svg version="1.1" id="Layer_1" xmlns="http://www.w3.org/2000/svg" xmlns:xlink="http://www.w3.org/1999/xlink" x="0px" y="0px"
	 viewBox="0 0 318.2 162.1" style="enable-background:new 0 0 318.2 162.1;" xml:space="preserve">
<path d="M0,0h75.3c45.9,0,68.9,15.9,68.9,47.7c0,12.6-3.7,22.7-11.2,30.5c12.1,8.1,18.1,20.3,18.1,36.5c0,31.6-23,47.4-68.9,47.4H0
	V0z M30,28.1V67h53.1c10.8,0,18.6-1.6,23.4-4.8c4.8-3.2,7.1-8,7.1-14.5c0-6.7-2.4-11.6-7.1-14.8c-4.8-3.2-12.6-4.8-23.4-4.8L30,28.1
	z M90.1,134c10.8,0,18.6-1.6,23.4-4.8c4.8-3.2,7.2-8,7.2-14.5c0-6.7-2.4-11.6-7.1-14.8c-4.8-3.2-12.6-4.8-23.4-4.8H30V134H90.1z"/>
<polygon points="246.6,66.9 317.5,0 276.6,0 200.9,71 200.9,0 172.4,0 172.4,162.1 200.9,162.1 200.9,109.5 225.6,86.5 282.4,162.1 
	318.2,162.1 "/>
</svg>
