<svg width="949" height="142" viewBox="0 0 949 142" fill="none" xmlns="http://www.w3.org/2000/svg">
<g clip-path="url(#clip0_2513_1466)">
<path d="M948.82 133.5C948.864 135.114 948.425 136.703 947.56 138.066C946.695 139.429 945.443 140.503 943.965 141.15C942.486 141.797 940.848 141.988 939.26 141.699C937.672 141.409 936.206 140.653 935.051 139.526C933.895 138.399 933.102 136.953 932.773 135.373C932.444 133.792 932.594 132.15 933.204 130.655C933.814 129.161 934.856 127.883 936.197 126.984C937.537 126.085 939.116 125.607 940.73 125.61C941.781 125.589 942.827 125.777 943.805 126.163C944.783 126.55 945.674 127.127 946.427 127.861C947.18 128.596 947.779 129.472 948.19 130.44C948.601 131.408 948.815 132.448 948.82 133.5ZM934.62 133.5C934.594 134.322 934.735 135.142 935.034 135.908C935.333 136.675 935.783 137.374 936.358 137.962C936.934 138.55 937.622 139.016 938.382 139.332C939.141 139.648 939.957 139.807 940.78 139.8C941.589 139.801 942.391 139.638 943.135 139.321C943.88 139.004 944.553 138.539 945.114 137.955C945.674 137.371 946.111 136.68 946.397 135.923C946.684 135.166 946.814 134.359 946.78 133.55C946.816 132.73 946.687 131.912 946.399 131.144C946.111 130.375 945.671 129.673 945.105 129.079C944.54 128.485 943.86 128.011 943.106 127.687C942.353 127.362 941.542 127.193 940.721 127.19C939.901 127.186 939.088 127.349 938.332 127.667C937.576 127.986 936.892 128.454 936.321 129.043C935.75 129.632 935.305 130.331 935.011 131.097C934.717 131.863 934.58 132.68 934.61 133.5M939.47 137.64H937.64V129.75C938.63 129.573 939.635 129.493 940.64 129.51C941.592 129.433 942.547 129.631 943.39 130.08C943.639 130.295 943.838 130.562 943.971 130.863C944.104 131.164 944.169 131.491 944.16 131.82C944.127 132.262 943.948 132.681 943.651 133.011C943.354 133.34 942.957 133.561 942.52 133.64V133.74C942.913 133.9 943.255 134.164 943.509 134.505C943.762 134.845 943.918 135.248 943.96 135.67C944.037 136.365 944.233 137.042 944.54 137.67H942.54C942.234 137.062 942.021 136.412 941.91 135.74C941.77 134.88 941.29 134.49 940.27 134.49H939.41L939.47 137.64ZM939.52 133.16H940.38C941.38 133.16 942.21 132.83 942.21 132.01C942.21 131.19 941.68 130.8 940.53 130.8C940.194 130.793 939.858 130.827 939.53 130.9L939.52 133.16Z" fill="white"/>
<path d="M371.72 70.2601C371.72 47.7501 371.72 25.2601 371.72 2.73013C371.72 0.620131 372.21 0.01014 374.38 0.02014C410.893 0.0868067 447.407 0.0868067 483.92 0.02014C485.92 0.02014 486.47 0.550148 486.43 2.56015C486.3 9.00015 486.29 15.4401 486.43 21.8801C486.43 24.0701 485.79 24.5901 483.68 24.5801C456.19 24.5101 428.68 24.5801 401.2 24.4701C398.43 24.4701 397.86 25.2701 397.91 27.8701C398.06 37.0601 398.04 46.2501 397.91 55.4401C397.91 57.5901 398.44 58.1501 400.6 58.1401C421.6 58.0501 442.52 58.1401 463.49 58.0401C465.77 58.0401 466.59 58.5201 466.49 60.9801C466.3 67.3301 466.34 73.7001 466.49 80.0501C466.49 82.0501 465.98 82.6101 463.94 82.6101C442.94 82.5301 421.85 82.6102 400.8 82.5002C398.4 82.5002 397.89 83.1702 397.9 85.5002C397.9 94.7702 397.84 104.05 397.64 113.32C397.59 115.52 398.08 116.19 400.43 116.18C428.09 116.08 455.76 116.18 483.43 116.07C485.69 116.07 486.51 116.51 486.43 118.96C486.24 125.23 486.27 131.51 486.43 137.77C486.43 139.98 485.98 140.65 483.63 140.65C449.777 140.563 415.927 140.543 382.08 140.59C379.59 140.59 377.08 140.4 374.61 140.64C372.14 140.88 371.71 139.78 371.72 137.57C371.75 115.1 371.72 92.6801 371.72 70.2601Z" fill="white"/>
<path d="M115.49 67.74C123.49 59.18 125.58 48.74 124.82 37.45C123.92 24.04 117.66 14.02 105.67 7.79001C94.57 2.02001 82.49 0.370001 70.24 0.220001C47.82 -0.0499988 25.39 0.13002 2.95996 0.0200195C0.699961 0.0200195 -0.0400391 0.480024 -0.0400391 2.90002C0.0399609 47.84 0.0399609 92.78 -0.0400391 137.72C-0.0400391 139.89 0.339955 140.62 2.71996 140.61C26 140.51 49.29 140.61 72.57 140.52C82.64 140.52 92.65 139.64 102.34 136.64C112.66 133.45 121.57 128.27 126.75 118.28C135.69 101.17 131.13 80.69 115.49 67.74ZM26.24 26.79C26.24 25.23 26.51 24.52 28.31 24.54C44.46 24.66 60.61 24.65 76.76 24.76C80.9914 24.7508 85.1871 25.5343 89.13 27.07C95.29 29.51 98.5 34.41 98.54 41.33C98.54 48.1 95.45 52.98 89.39 55.49C84.21 57.63 78.72 57.99 73.22 58.06C66.69 58.15 60.16 58.06 53.63 58.06C45.3 58.06 36.96 58.06 28.63 58.06C26.97 58.06 26.23 57.82 26.25 55.87C26.32 46.21 26.29 36.5 26.24 26.79ZM95.13 113.55C90.03 115.55 84.64 116.01 79.22 116.06C71.32 116.12 63.42 116.06 55.52 116.06C46.52 116.06 37.52 116.06 28.46 116.06C26.86 116.06 26.25 115.73 26.27 113.97C26.3633 104.177 26.3633 94.3834 26.27 84.59C26.27 82.88 26.79 82.47 28.44 82.47C45.79 82.53 63.14 82.47 80.49 82.54C85.4787 82.4335 90.4427 83.2716 95.12 85.01C101.32 87.4833 104.45 92.2333 104.51 99.26C104.52 106.17 101.32 111.07 95.13 113.55Z" fill="white"/>
<path d="M326.13 138.27C305.203 92.7902 284.323 47.2935 263.49 1.78019C263.285 1.1958 262.881 0.701755 262.35 0.38389C261.818 0.0660259 261.192 -0.0555938 260.58 0.040171C251.22 0.090171 241.85 0.160171 232.49 0.040171C230.01 0.040171 228.8 0.680171 227.73 3.04017C210.81 40.1668 193.81 77.2602 176.73 114.32C172.73 122.95 168.81 131.59 164.67 140.6C174.09 140.6 183.02 140.6 191.94 140.6C193.44 140.6 193.77 139.6 194.23 138.6C198.29 129.81 202.4 121.04 206.39 112.22C206.593 111.537 207.033 110.949 207.63 110.56C208.227 110.172 208.943 110.009 209.65 110.1C233.79 110.16 257.927 110.16 282.06 110.1C282.767 110 283.487 110.155 284.091 110.538C284.694 110.921 285.14 111.507 285.35 112.19C289.35 121.02 293.46 129.78 297.46 138.6C297.66 139.238 298.076 139.786 298.636 140.151C299.196 140.516 299.866 140.675 300.53 140.6C308.53 140.507 316.53 140.507 324.53 140.6C326.53 140.63 327.13 140.36 326.13 138.27ZM270.65 85.7902C254.08 85.6902 237.5 85.7402 220.93 85.7302C220.562 85.8103 220.182 85.8153 219.813 85.7448C219.444 85.6744 219.092 85.5299 218.78 85.3202L245.78 26.4002C246.36 27.4002 246.78 28.1202 247.11 28.8302C255.443 46.9768 263.777 65.1202 272.11 83.2602C272.94 85.0502 273.13 85.8002 270.64 85.7902H270.65Z" fill="white"/>
<path d="M665.86 140.46C654.15 125.16 644.07 110.61 632.57 97.12C623.96 85.47 615.46 73.75 606.67 62.24C604.2 59.01 603.97 57.01 607.23 54.09C617.87 44.53 628.23 34.67 638.65 24.88C646.91 17.13 655.1 9.30001 664.74 0.170013H664.57L664.74 0.0200195H631.91L563.82 63.25V0.0200195H540.27V140.63H563.82V96.36C564.016 94.939 564.728 93.6398 565.82 92.71C571.76 87.47 577.62 82.13 583.25 76.56C585.25 74.56 586.56 74.46 587.92 75.66L637.11 140.66H665.88L665.74 140.49L665.86 140.46Z" fill="white"/>
<path d="M736.54 140.04C717.81 140.04 708.54 133.37 708.54 119.86C708.54 112.33 711.54 106.92 717.54 103.73C714.774 100.138 713.311 95.7126 713.39 91.1798C713.39 78.4398 722.39 71.2998 736.56 71.2998C750.73 71.2998 759.83 78.4398 759.83 91.1798H747.45C747.45 85.9698 742.91 83.0698 736.54 83.0698C730.17 83.0698 725.72 85.9698 725.72 91.1798C725.72 94.0798 727.72 97.2698 731.42 99.8698L752.42 114.87V105.02H764.59V119.86C764.59 121.11 764.49 122.27 764.39 123.43L771.39 128.43L764.73 138.43L758.65 134.09C754.01 138.04 746.65 139.98 736.54 139.98M736.54 128.2C741.36 128.2 745.13 127.62 747.83 126.36L728.23 112.46C723.31 113.62 720.9 116.13 720.9 119.8C720.9 125.4 726.113 128.2 736.54 128.2Z" fill="white"/>
<path d="M812.33 71.2899C824.59 71.2899 833.76 75.54 839.26 83.56L829.03 90.56C825.75 85.56 820.15 83.03 812.33 83.03C798.71 83.03 791.95 90.5599 791.95 105.63C791.95 120.7 798.71 128.22 812.33 128.22C820.15 128.22 825.75 125.71 829.03 120.69L839.26 127.69C833.76 135.69 824.59 139.96 812.33 139.96C791.33 139.96 779.6 127.6 779.6 105.59C779.6 83.58 791.37 71.21 812.33 71.21" fill="white"/>
<path d="M848.43 105.67C848.43 83.6698 860.21 71.2998 881.16 71.2998C902.11 71.2998 913.89 83.6498 913.89 105.67C913.89 127.69 902.13 140.04 881.13 140.04C860.13 140.04 848.4 127.68 848.4 105.67M881.13 128.26C894.75 128.26 901.5 120.73 901.5 105.67C901.5 90.6098 894.75 83.0698 881.13 83.0698C867.51 83.0698 860.76 90.5998 860.76 105.67C860.76 120.74 867.52 128.26 881.13 128.26Z" fill="white"/>
</g>
<defs>
<clipPath id="clip0_2513_1466">
<rect width="948.82" height="141.49" fill="white"/>
</clipPath>
</defs>
</svg>
